<svg xmlns="http://www.w3.org/2000/svg" width="339" height="128" viewBox="0 0 339 128" fill="none"><g clip-path="url(#clip0_304_1729)"><path d="M284.644 68.838H309.085L321.057 56.8112H277.433L263.444 70.8541L290.467 87.6372H263.545V99.7963H308.216V83.4959L284.644 68.838Z" fill="white"></path><path d="M316.133 72.8236L339 49.8597L225.853 49.8675V19.5241L206.537 0.0165405H130.648L115.225 15.5852V49.8597H0L22.859 72.8236V103.455L47.1757 127.999L291.848 127.976L316.133 103.455V72.8236Z" fill="#180D23"></path><path d="M217.486 1.16084H216.059V0.000976562H220.231V1.16084H218.804V4.77278H217.486V1.16084Z" fill="url(#paint0_linear_304_1729)"></path><path d="M220.805 0.000976562H222.193L223.325 1.84587L224.457 0.000976562H225.845V4.77278H224.535V2.03269L223.317 3.90094H223.286L222.076 2.04826V4.77278H220.789V0.000976562H220.805Z" fill="url(#paint1_linear_304_1729)"></path><path d="M217.68 22.5444L202.234 6.95239H173.334V49.8675H217.68V22.5522V22.5444ZM204.878 39.0784H186.144V18.9948H197.713L204.878 26.1875V39.0784Z" fill="url(#paint2_linear_304_1729)"></path><path d="M94.406 82.8887H112.636L120.979 74.5128H94.406V68.838H126.632L138.604 56.8112H81.604V99.7963H125.624L125.616 88.7503H94.406V82.8887Z" fill="url(#paint3_linear_304_1729)"></path><path d="M196.581 89.0617V56.7956L170.69 56.8112L183.779 70.0212V99.7963H231.033L220.402 89.0617H196.581Z" fill="url(#paint4_linear_304_1729)"></path><path d="M148.312 56.8112L132.525 72.6601V99.7963H145.327V87.6372H164.061V99.7963H176.863V72.699L161.037 56.8112H148.304H148.312ZM164.068 79.2612H145.335V75.805L154.671 66.4326L164.068 75.8672V79.2612Z" fill="url(#paint5_linear_304_1729)"></path><path d="M75.168 87.1779V56.7956H18.0283L30.776 69.5931V99.7963H43.578V87.1779H48.2847L60.854 99.7963H75.6178L63.1182 87.1779H75.1603H75.168ZM43.578 77.2139V68.838H62.3583V77.2139H43.578Z" fill="url(#paint6_linear_304_1729)"></path><path d="M267.764 56.8112H240.632L230.102 67.3823L219.572 56.8112H203.963V81.0828H216.765V69.6709L230.102 83.06L243.206 69.9044L243.214 99.7963H256.016V68.6044L267.764 56.8112Z" fill="url(#paint7_linear_304_1729)"></path><path d="M284.644 68.838H309.085L321.057 56.8112H277.433L263.445 70.8541L290.468 87.6372H263.545V99.7963H308.217V83.4959L284.644 68.838Z" fill="url(#paint8_linear_304_1729)"></path><path d="M153.624 18.987V25.2223H142.373V32.3761H153.624V39.0784H135.58V32.991H123.406V49.8597H166.426V6.95239H134.952L123.026 18.987H153.624Z" fill="url(#paint9_linear_304_1729)"></path></g><defs><linearGradient id="paint0_linear_304_1729" x1="218.145" y1="-50.0757" x2="218.145" y2="120.199" gradientUnits="userSpaceOnUse"><stop offset="0.019" stop-color="#224360"></stop><stop offset="0.375" stop-color="#D22A2B"></stop><stop offset="0.684" stop-color="#EC5F0F"></stop><stop offset="1" stop-color="#F5D283"></stop></linearGradient><linearGradient id="paint1_linear_304_1729" x1="223.333" y1="-50.0757" x2="223.333" y2="120.199" gradientUnits="userSpaceOnUse"><stop offset="0.019" stop-color="#224360"></stop><stop offset="0.375" stop-color="#D22A2B"></stop><stop offset="0.684" stop-color="#EC5F0F"></stop><stop offset="1" stop-color="#F5D283"></stop></linearGradient><linearGradient id="paint2_linear_304_1729" x1="195.511" y1="-50.0758" x2="195.511" y2="120.199" gradientUnits="userSpaceOnUse"><stop offset="0.019" stop-color="#224360"></stop><stop offset="0.375" stop-color="#D22A2B"></stop><stop offset="0.684" stop-color="#EC5F0F"></stop><stop offset="1" stop-color="#F5D283"></stop></linearGradient><linearGradient id="paint3_linear_304_1729" x1="110.108" y1="-50.0757" x2="110.108" y2="120.199" gradientUnits="userSpaceOnUse"><stop offset="0.019" stop-color="#224360"></stop><stop offset="0.375" stop-color="#D22A2B"></stop><stop offset="0.684" stop-color="#EC5F0F"></stop><stop offset="1" stop-color="#F5D283"></stop></linearGradient><linearGradient id="paint4_linear_304_1729" x1="200.862" y1="-50.0757" x2="200.862" y2="120.199" gradientUnits="userSpaceOnUse"><stop offset="0.019" stop-color="#224360"></stop><stop offset="0.375" stop-color="#D22A2B"></stop><stop offset="0.684" stop-color="#EC5F0F"></stop><stop offset="1" stop-color="#F5D283"></stop></linearGradient><linearGradient id="paint5_linear_304_1729" x1="154.702" y1="-50.0757" x2="154.702" y2="120.199" gradientUnits="userSpaceOnUse"><stop offset="0.019" stop-color="#224360"></stop><stop offset="0.375" stop-color="#D22A2B"></stop><stop offset="0.684" stop-color="#EC5F0F"></stop><stop offset="1" stop-color="#F5D283"></stop></linearGradient><linearGradient id="paint6_linear_304_1729" x1="46.8347" y1="-50.0757" x2="46.8347" y2="120.199" gradientUnits="userSpaceOnUse"><stop offset="0.019" stop-color="#224360"></stop><stop offset="0.375" stop-color="#D22A2B"></stop><stop offset="0.684" stop-color="#EC5F0F"></stop><stop offset="1" stop-color="#F5D283"></stop></linearGradient><linearGradient id="paint7_linear_304_1729" x1="235.863" y1="-50.0757" x2="235.863" y2="120.199" gradientUnits="userSpaceOnUse"><stop offset="0.019" stop-color="#224360"></stop><stop offset="0.375" stop-color="#D22A2B"></stop><stop offset="0.684" stop-color="#EC5F0F"></stop><stop offset="1" stop-color="#F5D283"></stop></linearGradient><linearGradient id="paint8_linear_304_1729" x1="292.251" y1="-50.0757" x2="292.251" y2="120.199" gradientUnits="userSpaceOnUse"><stop offset="0.019" stop-color="#224360"></stop><stop offset="0.375" stop-color="#D22A2B"></stop><stop offset="0.684" stop-color="#EC5F0F"></stop><stop offset="1" stop-color="#F5D283"></stop></linearGradient><linearGradient id="paint9_linear_304_1729" x1="144.722" y1="-50.0758" x2="144.722" y2="120.199" gradientUnits="userSpaceOnUse"><stop offset="0.019" stop-color="#224360"></stop><stop offset="0.375" stop-color="#D22A2B"></stop><stop offset="0.684" stop-color="#EC5F0F"></stop><stop offset="1" stop-color="#F5D283"></stop></linearGradient><clipPath id="clip0_304_1729"><rect width="339" height="128" fill="white"></rect></clipPath></defs></svg>