<svg xmlns="http://www.w3.org/2000/svg" viewBox="0 0 39.27 5.84"><defs>
<style>.cls-1 { fill: white; }</style></defs><g id="레이어_2" data-name="레이어 2"><g id="레이어_1-2" data-name="레이어 1"><path class="cls-1" d="M3.59,4.37a.92.92,0,0,0-.33-.75A3.42,3.42,0,0,0,2.05,3.1,4.21,4.21,0,0,1,.76,2.55,1.25,1.25,0,0,1,.18,1.47,1.26,1.26,0,0,1,.72.41,2.19,2.19,0,0,1,2.09,0a2.18,2.18,0,0,1,1,.22,1.67,1.67,0,0,1,.7.61A1.63,1.63,0,0,1,4,1.7H3.56a1.19,1.19,0,0,0-.4-.94A1.53,1.53,0,0,0,2.09.41a1.65,1.65,0,0,0-1,.29.9.9,0,0,0-.39.76A.88.88,0,0,0,1,2.17a3.25,3.25,0,0,0,1.11.48,5.33,5.33,0,0,1,1.17.43,1.64,1.64,0,0,1,.59.54,1.39,1.39,0,0,1,.2.74,1.28,1.28,0,0,1-.54,1.08,2.3,2.3,0,0,1-1.42.4A2.84,2.84,0,0,1,1,5.63,1.65,1.65,0,0,1,.26,5,1.6,1.6,0,0,1,0,4.14H.48a1.14,1.14,0,0,0,.45,1,1.91,1.91,0,0,0,1.19.35,1.74,1.74,0,0,0,1.07-.3A.89.89,0,0,0,3.59,4.37Z"/><path class="cls-1" d="M9,.48H7V5.77H6.54V.48H4.6V.08H9Z"/><path class="cls-1" d="M13.81.08V4a1.91,1.91,0,0,1-.26,1,1.72,1.72,0,0,1-.7.66,2.32,2.32,0,0,1-1,.22,2,2,0,0,1-1.43-.49A1.78,1.78,0,0,1,9.8,4V.08h.48V3.93A1.49,1.49,0,0,0,10.69,5a1.51,1.51,0,0,0,1.11.4A1.58,1.58,0,0,0,12.92,5a1.5,1.5,0,0,0,.4-1.11V.08Z"/><path class="cls-1" d="M15.15,5.77V.08h1.59A2.4,2.4,0,0,1,18,.4a2.19,2.19,0,0,1,.87.91,2.92,2.92,0,0,1,.31,1.35v.52a3,3,0,0,1-.31,1.36,2.31,2.31,0,0,1-.87.91,2.57,2.57,0,0,1-1.29.32ZM15.63.48V5.36h1.08a1.84,1.84,0,0,0,1.44-.6,2.29,2.29,0,0,0,.54-1.61v-.5a2.28,2.28,0,0,0-.53-1.57,1.88,1.88,0,0,0-1.41-.6Z"/><path class="cls-1" d="M21,5.77h-.48V.08H21Z"/><path class="cls-1" d="M26.72,3.23a3.33,3.33,0,0,1-.27,1.38,2,2,0,0,1-.78.91,2,2,0,0,1-1.16.32,2,2,0,0,1-1.61-.71,2.84,2.84,0,0,1-.61-1.92V2.62a3.33,3.33,0,0,1,.27-1.38,2.08,2.08,0,0,1,.78-.92,2.26,2.26,0,0,1,2.32,0,2.1,2.1,0,0,1,.77.89,3.14,3.14,0,0,1,.29,1.34Zm-.48-.62A2.53,2.53,0,0,0,25.77,1,1.55,1.55,0,0,0,24.5.42,1.53,1.53,0,0,0,23.24,1a2.49,2.49,0,0,0-.47,1.63v.59a2.52,2.52,0,0,0,.46,1.6,1.55,1.55,0,0,0,1.28.6,1.52,1.52,0,0,0,1.27-.59,2.55,2.55,0,0,0,.46-1.63Z"/><path class="cls-1" d="M30.67,4.27a.6.6,0,0,0-.24-.51,3.13,3.13,0,0,0-.84-.37,5.68,5.68,0,0,1-1-.39,1.58,1.58,0,0,1-1-1.41,1.32,1.32,0,0,1,.26-.82A1.73,1.73,0,0,1,28.66.2,2.94,2.94,0,0,1,29.75,0a2.53,2.53,0,0,1,1.09.22,1.81,1.81,0,0,1,.74.62,1.62,1.62,0,0,1,.26.92H30.67a.78.78,0,0,0-.24-.61,1.07,1.07,0,0,0-.7-.22,1,1,0,0,0-.66.19.57.57,0,0,0-.24.47.55.55,0,0,0,.28.47,3.27,3.27,0,0,0,.82.35,3.54,3.54,0,0,1,1.46.75,1.48,1.48,0,0,1,.45,1.11,1.36,1.36,0,0,1-.55,1.15,2.48,2.48,0,0,1-1.51.42,2.88,2.88,0,0,1-1.19-.24A2,2,0,0,1,27.76,5a1.7,1.7,0,0,1-.28-1h1.18c0,.62.37.94,1.12.94a1.09,1.09,0,0,0,.65-.17A.56.56,0,0,0,30.67,4.27Z"/><path class="cls-1" d="M35.85,4.59H33.79L33.4,5.77H32.16L34.27.08h1.09l2.13,5.69H36.24Zm-1.74-.95h1.42l-.71-2.12Z"/><path class="cls-1" d="M39.27,5.77H38.09V.08h1.18Z" /></g></g></svg>