<?xml version="1.0" encoding="UTF-8"?>
<svg width="120px" height="97px" viewBox="0 0 120 97" version="1.1" xmlns="http://www.w3.org/2000/svg" xmlns:xlink="http://www.w3.org/1999/xlink">
    <!-- Generator: Sketch 49.1 (51147) - http://www.bohemiancoding.com/sketch -->
    <title>Page 1</title>
    <desc>Created with Sketch.</desc>
    <defs>
        <polygon id="path-1" points="3.2231508e-05 0.142 26.9839693 0.142 26.9839693 32.99846 3.2231508e-05 32.99846"></polygon>
        <polygon id="path-3" points="0.0599443182 0.142 16.927808 0.142 16.927808 32.98666 0.0599443182 32.98666"></polygon>
        <polygon id="path-5" points="0.0159721154 0.142 20.8828846 0.142 20.8828846 32.9984 0.0159721154 32.9984"></polygon>
        <polygon id="path-7" points="0.00930357143 0.13665 4.92608929 0.13665 4.92608929 9 0.00930357143 9"></polygon>
    </defs>
    <g id="Page-1" stroke="none" stroke-width="1" fill="none" fill-rule="evenodd">
        <g>
            <g id="Group-3">
                <mask id="mask-2" fill="white">
                    <use xlink:href="#path-1"></use>
                </mask>
                <g id="Clip-2"></g>
                <path d="M13.4920007,11.23346 L15.6568366,18.04886 L11.3269634,18.04886 L13.4920007,11.23346 Z M6.69545597,32.63146 L9.29088134,24.45986 L17.6929187,24.45986 L20.288344,32.63146 C20.357859,32.84986 20.5617694,32.99846 20.7924784,32.99846 L26.4554261,32.99846 C26.6236724,32.99846 26.7820455,32.91906 26.8817843,32.78426 C26.9811201,32.64906 27.0101351,32.47526 26.9595604,32.31586 L16.8569261,0.50886 C16.7874112,0.29066 16.5835007,0.14186 16.3527918,0.14186 L10.6314112,0.14186 C10.4005007,0.14186 10.1967918,0.29066 10.1272769,0.50886 L0.0244410448,32.31586 C-0.0261335821,32.47526 0.00288134328,32.64906 0.102217164,32.78426 C0.201754478,32.91906 0.360127612,32.99846 0.528575373,32.99846 L6.19132164,32.99846 C6.4220306,32.99846 6.62614254,32.84986 6.69545597,32.63146 Z" id="Fill-1" fill="#C59166" mask="url(#mask-2)"></path>
            </g>
            <path d="M53.506542,6.44192122 L58.9061173,6.44192122 L58.9061173,32.4726688 C58.9061173,32.7640675 59.1329415,33 59.4126593,33 L64.5869547,33 C64.8668654,33 65.0934966,32.7640675 65.0934966,32.4726688 L65.0934966,6.44192122 L70.4936511,6.44192122 C70.7733688,6.44192122 71,6.20598875 71,5.91459003 L71,0.527130225 C71,0.235731511 70.7733688,0 70.4936511,0 L53.506542,0 C53.2268242,0 53,0.235731511 53,0.527130225 L53,5.91459003 C53,6.20598875 53.2268242,6.44192122 53.506542,6.44192122" id="Fill-4" fill="#C59166"></path>
            <g id="Group-8" transform="translate(76.000000, 0.000000)">
                <mask id="mask-4" fill="white">
                    <use xlink:href="#path-3"></use>
                </mask>
                <g id="Clip-7"></g>
                <path d="M16.927808,27.08346 C16.927808,26.79346 16.7008193,26.55866 16.421092,26.55866 L6.25200114,26.55866 L6.25200114,23.96646 L12.781933,23.96646 C13.0616602,23.96646 13.2886489,23.73166 13.2886489,23.44166 L13.2886489,18.08046 C13.2886489,17.79046 13.0616602,17.55586 12.781933,17.55586 L6.25200114,17.55586 L6.25200114,6.55306 L16.421092,6.55306 C16.7008193,6.55306 16.927808,6.31826 16.927808,6.02826 L16.927808,0.66666 C16.927808,0.37666 16.7008193,0.14186 16.421092,0.14186 L0.566853409,0.14186 C0.286739773,0.14186 0.0599443182,0.37666 0.0599443182,0.66666 L0.0599443182,32.45886 C0.0599443182,32.74886 0.286739773,32.98366 0.566853409,32.98366 L5.74528523,32.98366 L16.421092,32.98666 C16.7008193,32.98666 16.927808,32.75206 16.927808,32.46206 L16.927808,27.08346 Z" id="Fill-6" fill="#C59166" mask="url(#mask-4)"></path>
            </g>
            <path d="M30.5106912,33 L35.7299433,33 C36.0120598,33 36.2408292,32.7640675 36.2408292,32.4726688 L36.2408292,24.142082 L42.8214053,24.142082 C43.1037164,24.142082 43.3322911,23.9063505 43.3322911,23.6147508 L43.3322911,18.2278939 C43.3322911,17.9364952 43.1037164,17.7007637 42.8214053,17.7007637 L36.2408292,17.7007637 L36.2408292,6.44192122 L46.4891141,6.44192122 C46.7714253,6.44192122 47,6.20598875 47,5.91459003 L47,0.527130225 C47,0.235731511 46.7714253,0 46.4891141,0 L30.5106912,0 C30.2287694,0 30,0.235731511 30,0.527130225 L30,32.4726688 C30,32.7640675 30.2287694,33 30.5106912,33" id="Fill-9" fill="#C59166"></path>
            <g id="Group-13" transform="translate(99.000000, 0.000000)">
                <mask id="mask-6" fill="white">
                    <use xlink:href="#path-5"></use>
                </mask>
                <g id="Clip-12"></g>
                <path d="M6.4882125,6.553 L8.77741442,6.553 C11.8833952,6.553 14.4104625,9.0556 14.4104625,12.1322 C14.4104625,15.209 11.8833952,17.7122 8.77741442,17.7122 L6.4882125,17.7122 L6.4882125,6.553 Z M0.545818269,32.9836 L5.95836635,32.9836 C6.25095288,32.9836 6.4882125,32.7488 6.4882125,32.4588 L6.4882125,24.1232 L8.77741442,24.1232 C9.32038558,24.1232 9.88294327,24.0836 10.4497413,24.0058 L13.3778279,32.6408 C13.4503183,32.8544 13.6522413,32.9984 13.8798087,32.9984 L19.5897894,32.9984 C19.7602125,32.9984 19.9203375,32.917 20.0198856,32.7802 C20.1194337,32.6428 20.1462894,32.4666 20.0917702,32.3066 L16.4052606,21.434 C19.2507606,19.1404 20.8829048,15.75 20.8829048,12.1322 C20.8829048,5.521 15.4525875,0.142 8.77741442,0.142 L0.545818269,0.142 C0.253231731,0.142 0.0159721154,0.3766 0.0159721154,0.6666 L0.0159721154,32.4588 C0.0159721154,32.7488 0.253231731,32.9836 0.545818269,32.9836 Z" id="Fill-11" fill="#C59166" mask="url(#mask-6)"></path>
            </g>
            <path d="M74.8173989,59.6457441 L72.5137798,59.6457441 L72.5137798,48.4381817 L74.8173989,48.4381817 C77.9432166,48.4381817 80.4862202,50.9524311 80.4862202,54.0423646 C80.4862202,57.1322982 77.9432166,59.6457441 74.8173989,59.6457441 M74.8173989,42 L66.5330269,42 C66.2385717,42 66,42.2356167 66,42.5268735 L66,74.4729256 C66,74.7643833 66.2385717,75 66.5330269,75 L71.9805496,75 C72.2750048,75 72.5137798,74.7643833 72.5137798,74.4729256 L72.5137798,66.0847293 L74.8173989,66.0847293 C75.3636346,66.0847293 75.9301916,66.0449576 76.5004064,65.9668205 L79.4406909,74.6229731 C79.5134411,74.8376996 79.716857,74.9823237 79.9458777,74.9823237 L85.6923263,74.9823237 C85.8636346,74.9823237 86.0247823,74.9003701 86.1251693,74.7631781 C86.2255564,74.6251826 86.2523805,74.4480181 86.1975131,74.2875256 L82.4939617,63.3836738 C85.357635,61.0803345 87,57.675241 87,54.0423646 C87,47.4023118 81.535001,42 74.8173989,42" id="Fill-14" fill="#C59166"></path>
            <path d="M54.5530455,62.5304708 C54.5530455,65.8601864 51.8378185,68.5689036 48.5001006,68.5689036 C45.1625838,68.5689036 42.4469545,65.8601864 42.4469545,62.5304708 L42.4469545,54.4701311 C42.4469545,51.1404155 45.1625838,48.4310964 48.5001006,48.4310964 C51.8378185,48.4310964 54.5530455,51.1404155 54.5530455,54.4701311 L54.5530455,62.5304708 Z M61,62.5304708 L61,54.4701311 C61,47.5944038 55.3925534,42 48.5001006,42 C41.6074466,42 36,47.5944038 36,54.4701311 L36,62.5304708 C36,69.4063988 41.6074466,75 48.5001006,75 C55.3925534,75 61,69.4063988 61,62.5304708 Z" id="Fill-16" fill="#C59166"></path>
            <path d="M108.151892,55.4417368 L117.428705,42.8497742 C117.54621,42.6901026 117.565367,42.4766046 117.477682,42.2980536 C117.389602,42.1195026 117.210283,42.0066279 117.01398,42.0066279 L110.399703,42.0066279 C110.236578,42.0066279 110.082932,42.0849573 109.984978,42.2177157 L99.3302886,56.6799447 L99.3302886,42.5270167 C99.3302886,42.2357918 99.0982399,42 98.8122769,42 L93.5182092,42 C93.2320487,42 93,42.2357918 93,42.5270167 L93,74.4671588 C93,74.7583837 93.2320487,74.9939747 93.5182092,74.9939747 L98.8122769,74.9939747 C99.0982399,74.9939747 99.3302886,74.7583837 99.3302886,74.4671588 L99.3302886,67.4159008 L104.033471,61.0322508 L111.902984,74.7389018 C111.996,74.9005818 112.166038,75 112.350294,75 L118.482107,75 C118.667746,75 118.838969,74.8989751 118.931393,74.7354874 C119.02362,74.5711964 119.02283,74.36995 118.929221,74.2070649 L108.151892,55.4417368 Z" id="Fill-18" fill="#C59166"></path>
            <path d="M32.4710981,42 L27.0306526,42 C26.7611919,42 26.5346915,42.2018502 26.5050428,42.4683728 L24.0976446,63.9331852 L17.4740728,50.6566629 C17.2951718,50.2983537 16.7050204,50.2983537 16.5261194,50.6566629 L9.90254751,63.9331852 L7.49494771,42.4683728 C7.46529895,42.2018502 7.23859692,42 6.96933783,42 L1.52929578,42 C1.3786317,42 1.23522855,42.063869 1.13498753,42.1755394 C1.03434312,42.2872098 0.986542065,42.4364383 1.00328252,42.5856669 L4.60510185,74.5316272 C4.63454891,74.7981498 4.86125094,75 5.13071172,75 L11.1919658,75 C11.3928512,75 11.5763911,74.8867229 11.6659424,74.7077691 L17.0000961,64.1772131 L22.3344514,74.7077691 C22.4240028,74.8867229 22.607341,75 22.8084281,75 L28.8694804,75 C29.1389412,75 29.3656432,74.7981498 29.395292,74.5316272 L32.9967079,42.5856669 C33.0134484,42.4364383 32.965849,42.2872098 32.8652046,42.1755394 C32.7651653,42.063869 32.6215605,42 32.4710981,42" id="Fill-20" fill="#C59166"></path>
            <path d="M17.042234,92.8140868 L18.2676987,92.8140868 L18.2676987,94.4656732 C18.1263066,94.5240104 17.7964574,94.5704461 17.3958133,94.5704461 C15.9225662,94.5704461 14.8855585,93.6284662 14.8855585,91.9999024 C14.8855585,90.2907592 16.0285609,89.4652586 17.5255382,89.4652586 C18.3976213,89.4652586 18.9279903,89.6045655 19.3640319,89.8025998 L19.7411436,88.3720703 C19.351969,88.1982294 18.5623482,88 17.5370077,88 C14.9322278,88 13.0112718,89.4884765 13,92.0931639 C13,93.2448845 13.4000509,94.267639 14.1192723,94.9538326 C14.8497655,95.6400263 15.8988361,96 17.3485508,96 C18.3976213,96 19.4464942,95.7447992 20,95.5580811 L20,91.430188 L17.042234,91.430188 L17.042234,92.8140868 Z" id="Fill-22" fill="#C59166"></path>
            <path d="M37.5834607,92.5931089 L38.039152,90.8960366 C38.1644385,90.4333798 38.2780749,89.8273252 38.3915202,89.3531169 L38.4144385,89.3531169 C38.5284568,89.8273252 38.6650115,90.4212308 38.8015661,90.8960366 L39.2799847,92.5931089 L37.5834607,92.5931089 Z M37.3332697,88 L35,96 L36.7870512,96 L37.3332697,93.946425 L39.5299847,93.946425 L40.1220397,96 L42,96 L39.6096257,88 L37.3332697,88 Z" id="Fill-24" fill="#C59166"></path>
            <path d="M63.144787,88 L62.2860107,90.6587667 C62.0077355,91.5488063 61.7296633,92.6053424 61.5118739,93.5310314 L61.4633635,93.5310314 C61.2821091,92.5929946 61.040166,91.5966043 60.7742721,90.6709154 L59.9759816,88 L57.5202183,88 L57,96 L58.7057802,96 L58.8624749,92.9612388 C58.9111883,91.9646494 58.9596987,90.7300655 58.9958278,89.6498295 L59.0199815,89.6498295 C59.2259985,90.6940178 59.4916894,91.833603 59.7579892,92.7837885 L60.6287409,95.869352 L62.0682213,95.869352 L63.0601475,92.7477408 C63.3751607,91.8105006 63.7137187,90.6709154 63.9794096,89.6498295 L64.0035633,89.6498295 C64.0035633,90.8131146 64.0405043,91.9765989 64.0766334,92.9375389 L64.2097833,96 L66,96 L65.5644212,88 L63.144787,88 Z" id="Fill-26" fill="#C59166"></path>
            <polygon id="Fill-28" fill="#C59166" points="82.7718722 92.6176903 85.6618953 92.6176903 85.6618953 91.1453111 82.7718722 91.1453111 82.7718722 89.4839304 85.8371074 89.4839304 85.8371074 88 81 88 81 96 86 96 86 94.5166671 82.7718722 94.5166671"></polygon>
            <g id="Group-32" transform="translate(102.000000, 88.000000)">
                <mask id="mask-8" fill="white">
                    <use xlink:href="#path-7"></use>
                </mask>
                <g id="Clip-31"></g>
                <path d="M3.07430357,3.76407857 C2.13823214,3.34236429 1.74448214,3.09979286 1.74448214,2.55143571 C1.74448214,2.11643571 2.08501786,1.72107857 2.78698214,1.72107857 C3.479125,1.72107857 4.000375,1.96386429 4.27733929,2.12929286 L4.63930357,0.571864286 C4.21323214,0.329507143 3.62805357,0.13665 2.80841071,0.13665 C1.12680357,0.13665 0.0946607143,1.24857857 0.0946607143,2.71686429 C0.0946607143,3.96872143 0.882160714,4.76029286 2.07394643,5.27072143 C2.93644643,5.62900714 3.27698214,5.93586429 3.27698214,6.47179286 C3.27698214,7.03365 2.882875,7.40415 2.13823214,7.40415 C1.44608929,7.40415 0.764839286,7.13543571 0.339660714,6.86800714 L0.00930357143,8.46400714 C0.414125,8.73207857 1.22269643,9.00015 2.04233929,9.00015 C4.01126786,9.00015 4.92608929,7.77400714 4.92608929,6.33100714 C4.92608929,5.11836429 4.34091071,4.32615 3.07430357,3.76407857" id="Fill-30" fill="#C59166" mask="url(#mask-8)"></path>
            </g>
        </g>
    </g>
</svg>