<?xml version="1.0" encoding="UTF-8" standalone="no"?>
<!-- Created with Inkscape (http://www.inkscape.org/) -->

<svg
   version="1.1"
   id="svg132"
   width="741.96503"
   height="156.88986"
   viewBox="0 0 741.96503 156.88986"
   xmlns="http://www.w3.org/2000/svg"
   xmlns:svg="http://www.w3.org/2000/svg">
  <defs
     id="defs136">
    <clipPath
       clipPathUnits="userSpaceOnUse"
       id="clipPath148">
      <path
         d="M 0,149 H 578.28 V 0 H 0 Z"
         id="path146" />
    </clipPath>
    <clipPath
       clipPathUnits="userSpaceOnUse"
       id="clipPath180">
      <path
         d="M 0,149 H 578.28 V 0 H 0 Z"
         id="path178" />
    </clipPath>
  </defs>
  <g
     id="g140"
     transform="matrix(1.3333333,0,0,-1.3333333,-11.787466,181.62426)">
    <g
       id="g142"
       style="fill:#ffffff">
      <g
         id="g144"
         clip-path="url(#clipPath148)"
         style="fill:#ffffff">
        <g
           id="g150"
           transform="translate(33.5126,49.1517)"
           style="fill:#ffffff">
          <path
             d="m 0,0 c 0,1.86 0.649,3.441 1.954,4.745 1.301,1.302 2.882,1.954 4.745,1.954 h 65.617 c 2.324,0 4.511,-0.443 6.559,-1.326 2.045,-0.885 3.837,-2.094 5.373,-3.628 1.534,-1.536 2.721,-3.35 3.558,-5.443 0.837,-2.093 1.256,-4.304 1.256,-6.629 v -3.07 c 0,-2.326 -0.419,-4.535 -1.256,-6.629 -0.837,-2.092 -2.024,-3.907 -3.558,-5.442 -1.536,-1.535 -3.328,-2.745 -5.373,-3.628 -2.048,-0.886 -4.235,-1.326 -6.559,-1.326 H -0.39 c -3.816,0 -7.211,0.929 -10.188,2.791 -2.978,1.86 -5.512,4.256 -7.605,7.187 -2.093,2.931 -3.698,6.21 -4.814,9.838 -1.117,3.629 -1.675,7.163 -1.675,10.606 0,3.535 0.58,7.093 1.744,10.676 1.163,3.58 2.861,6.838 5.094,9.769 2.233,2.93 4.93,5.324 8.094,7.186 3.161,1.86 6.744,2.791 10.745,2.791 h 81.358 c 1.86,0 3.441,-0.652 4.745,-1.953 1.302,-1.305 1.954,-2.885 1.954,-4.745 0,-1.862 -0.652,-3.443 -1.954,-4.745 -1.304,-1.304 -2.885,-1.954 -4.745,-1.954 H 4.075 c -3.257,0 -5.885,-0.582 -7.884,-1.744 C -5.811,14.117 -7.392,12.7 -8.554,11.024 -9.718,9.35 -10.507,7.512 -10.926,5.513 -11.345,3.511 -11.554,1.674 -11.554,0 c 0,-1.674 0.209,-3.512 0.628,-5.512 0.419,-2.002 1.208,-3.838 2.372,-5.512 1.162,-1.675 2.743,-3.094 4.745,-4.257 1.999,-1.164 4.627,-1.744 7.884,-1.744 h 67.683 c 1.116,0 2.115,0.51 3,1.535 0.883,1.023 1.326,2.233 1.326,3.628 0,1.396 -0.397,2.604 -1.186,3.629 -0.792,1.022 -1.839,1.534 -3.14,1.534 H 6.699 c -1.863,0 -3.444,0.651 -4.745,1.954 C 0.649,-3.443 0,-1.862 0,0"
             style="fill:#ffffff;fill-opacity:1;fill-rule:nonzero;stroke:none"
             id="path152" />
        </g>
        <g
           id="g154"
           transform="translate(137.3011,21.0629)"
           style="fill:#ffffff">
          <path
             d="m 0,0 c -1.396,-1.674 -3.118,-2.512 -5.164,-2.512 -1.862,0 -3.443,0.65 -4.745,1.954 -1.303,1.302 -1.953,2.883 -1.953,4.745 0,1.674 0.464,3.022 1.396,4.046 l 31.476,43.2 c 1.581,2.139 3.675,3.884 6.28,5.233 2.604,1.348 5.395,2.023 8.373,2.023 2.792,0 5.443,-0.606 7.955,-1.814 2.511,-1.21 4.557,-2.884 6.14,-5.023 L 83.669,8.932 c 0.558,-0.653 1.022,-1.374 1.395,-2.163 0.371,-0.792 0.559,-1.653 0.559,-2.582 0,-1.862 -0.652,-3.443 -1.954,-4.745 -1.304,-1.304 -2.885,-1.954 -4.745,-1.954 -2.233,0 -4.001,0.883 -5.303,2.652 L 41.106,41.106 c -0.652,0.744 -1.465,1.557 -2.442,2.442 -0.977,0.883 -1.978,1.326 -3.001,1.326 -1.025,0 -2.023,-0.443 -3,-1.326 -0.977,-0.885 -1.744,-1.698 -2.303,-2.442 z"
             style="fill:#ffffff;fill-opacity:1;fill-rule:nonzero;stroke:none"
             id="path156" />
        </g>
        <g
           id="g158"
           transform="translate(327.4247,25.2498)"
           style="fill:#ffffff">
          <path
             d="m 0,0 c 0,-1.862 -0.654,-3.443 -1.954,-4.745 -1.305,-1.304 -2.885,-1.954 -4.746,-1.954 -1.861,0 -3.442,0.65 -4.745,1.954 -1.302,1.302 -1.953,2.883 -1.953,4.745 v 30.422 c 0,3.814 -0.233,5.722 -0.697,5.722 -0.373,0 -1.675,-1.257 -3.907,-3.768 L -46.27,-1.295 c -1.211,-1.396 -2.7,-2.442 -4.466,-3.14 -1.768,-0.698 -3.676,-1.047 -5.721,-1.047 -2.048,0 -3.956,0.349 -5.722,1.047 -1.768,0.698 -3.258,1.744 -4.466,3.14 l -28.267,33.671 c -2.141,2.511 -3.443,3.768 -3.908,3.768 -0.466,0 -0.697,-1.908 -0.697,-5.722 V 0 c 0,-1.862 -0.652,-3.443 -1.954,-4.745 -1.304,-1.304 -2.885,-1.954 -4.745,-1.954 -1.862,0 -3.443,0.65 -4.744,1.954 -1.304,1.302 -1.954,2.883 -1.954,4.745 v 40.749 c 0,3.72 1.069,6.884 3.21,9.489 2.139,2.604 5.07,3.907 8.792,3.907 2.232,0 4.232,-0.558 6,-1.674 1.766,-1.117 3.395,-2.466 4.884,-4.047 l 29.663,-35.345 c 0.465,-0.467 1.047,-0.955 1.745,-1.466 0.697,-0.512 1.417,-0.767 2.163,-0.767 0.743,0 1.465,0.255 2.163,0.767 0.697,0.511 1.277,0.999 1.744,1.466 l 29.523,35.345 h 0.14 c 1.3,1.766 2.883,3.161 4.744,4.186 1.862,1.023 3.908,1.535 6.14,1.535 3.72,0 6.65,-1.303 8.792,-3.907 C -1.072,47.633 0,44.469 0,40.749 Z"
             style="fill:#ffffff;fill-opacity:1;fill-rule:nonzero;stroke:none"
             id="path160" />
        </g>
        <g
           id="g162"
           transform="translate(351.6292,18.5512)"
           style="fill:#ffffff">
          <path
             d="m 0,0 c -2.048,0 -4.095,0.44 -6.141,1.326 -2.046,0.883 -3.861,2.115 -5.441,3.698 -1.583,1.581 -2.886,3.489 -3.908,5.721 -1.024,2.233 -1.535,4.745 -1.535,7.536 v 12.56 c 0,2.512 0.72,4.186 2.163,5.023 1.441,0.838 3.698,1.257 6.768,1.257 h 93.638 c 1.86,0 3.442,-0.652 4.746,-1.954 1.301,-1.304 1.953,-2.885 1.953,-4.745 0,-1.862 -0.652,-3.443 -1.953,-4.745 -1.304,-1.304 -2.886,-1.954 -4.746,-1.954 H -3.628 v -6.837 c 0,-0.931 0.394,-1.745 1.186,-2.442 0.789,-0.698 1.836,-1.047 3.14,-1.047 h 87.917 c 1.86,0 3.441,-0.652 4.744,-1.954 1.303,-1.304 1.954,-2.885 1.954,-4.744 0,-1.863 -0.651,-3.443 -1.954,-4.745 C 92.056,0.65 90.475,0 88.615,0 Z m -17.025,54.146 c 0,1.86 0.65,3.44 1.953,4.745 1.303,1.301 2.883,1.953 4.746,1.953 h 98.941 c 1.86,0 3.441,-0.652 4.744,-1.953 1.303,-1.305 1.954,-2.885 1.954,-4.745 0,-1.862 -0.651,-3.444 -1.954,-4.745 -1.303,-1.304 -2.884,-1.954 -4.744,-1.954 h -98.941 c -1.863,0 -3.443,0.65 -4.746,1.954 -1.303,1.301 -1.953,2.883 -1.953,4.745"
             style="fill:#ffffff;fill-opacity:1;fill-rule:nonzero;stroke:none"
             id="path164" />
        </g>
        <g
           id="g166"
           transform="translate(462.4654,43.7399)"
           style="fill:#ffffff">
          <path
             d="m 0,0 c -2.233,0.977 -4.187,2.303 -5.861,3.978 -1.675,1.674 -3.001,3.628 -3.978,5.86 -0.977,2.233 -1.465,4.651 -1.465,7.257 0,2.604 0.488,5.024 1.465,7.257 0.977,2.233 2.303,4.186 3.978,5.861 1.674,1.674 3.628,3.001 5.861,3.977 2.232,0.977 4.65,1.465 7.257,1.465 h 84.707 c 1.86,0 3.441,-0.652 4.744,-1.953 1.302,-1.304 1.954,-2.885 1.954,-4.745 0,-1.862 -0.652,-3.443 -1.954,-4.745 -1.303,-1.304 -2.884,-1.953 -4.744,-1.953 H 6.977 c -1.395,0 -2.63,-0.489 -3.698,-1.466 -1.071,-0.977 -1.605,-2.211 -1.605,-3.698 0,-1.395 0.534,-2.606 1.605,-3.628 1.068,-1.025 2.303,-1.535 3.698,-1.535 h 77.172 c 2.603,0 5.045,-0.489 7.327,-1.466 2.278,-0.976 4.255,-2.302 5.93,-3.977 1.674,-1.674 3.001,-3.652 3.978,-5.93 0.976,-2.282 1.465,-4.723 1.465,-7.327 0,-2.606 -0.489,-5.024 -1.465,-7.257 -0.977,-2.233 -2.304,-4.186 -3.978,-5.861 -1.675,-1.674 -3.652,-2.978 -5.93,-3.907 -2.282,-0.931 -4.724,-1.396 -7.327,-1.396 H -32.06 c -1.862,0 -3.443,0.65 -4.744,1.954 -1.304,1.302 -1.954,2.883 -1.954,4.745 0,1.86 0.65,3.44 1.954,4.745 1.301,1.301 2.882,1.953 4.744,1.953 H 84.706 c 1.397,0 2.604,0.489 3.63,1.465 1.022,0.977 1.534,2.164 1.534,3.559 0,1.487 -0.512,2.743 -1.534,3.768 -1.026,1.022 -2.233,1.535 -3.63,1.535 H 7.257 C 4.65,-1.465 2.232,-0.977 0,0"
             style="fill:#ffffff;fill-opacity:1;fill-rule:nonzero;stroke:none"
             id="path168" />
        </g>
        <g
           id="g170"
           transform="translate(179.3564,45.8575)"
           style="fill:#ffffff">
          <path
             d="m 0,0 c 0,-3.408 -2.762,-6.17 -6.17,-6.17 -3.408,0 -6.17,2.762 -6.17,6.17 0,3.408 2.762,6.17 6.17,6.17 C -2.762,6.17 0,3.408 0,0"
             style="fill:#ffffff;fill-opacity:1;fill-rule:nonzero;stroke:none"
             id="path172" />
        </g>
      </g>
    </g>
    <g
       id="g174"
       style="fill:#ffffff">
      <g
         id="g176"
         clip-path="url(#clipPath180)"
         style="fill:#ffffff">
        <g
           id="g182"
           transform="translate(143.2774,136.2182)"
           style="fill:#ffffff">
          <path
             d="M 0,0 -9.087,-9.748 C 3.647,-20.309 0.077,-2.65 0,0"
             style="fill:#ffffff;fill-opacity:1;fill-rule:evenodd;stroke:none"
             id="path184" />
        </g>
        <g
           id="g186"
           transform="translate(142.8727,100.0056)"
           style="fill:#ffffff">
          <path
             d="M 0,0 24.35,-0.87 C 23.677,29.368 3.568,3.282 0,0 m -110.768,26.224 -0.035,-27.404 c 33.962,1.928 3.862,23.521 0.035,27.404 M -90.97,-1.184 c 0.051,0.084 0.1,0.169 0.147,0.254 4.181,4.149 23.432,28.457 24.09,-1.12 z M -3.737,-3.887 32.309,-5.175 C 31.472,32.431 12.276,16.829 0.534,4.799 1.17,8.432 1.313,13.188 0.822,19.311 l -5.893,-0.818 c 1.572,-28.734 -18.778,-9.932 -25.963,-3.607 l -0.062,-0.008 c -7.386,6.741 -20.222,-5.486 -28.142,-13.883 -3.062,27.509 -19.81,14.273 -30.726,3.22 -1.509,11.259 -21.352,25.917 -25.116,29.736 l -0.055,-43.3 c 9.619,0.546 15.972,2.094 19.908,4.296 l 36.453,-1.302 c 8.866,9.342 26.829,30.392 27.898,-0.273 v 0 l 5.479,-0.196 c -0.088,3.941 -0.38,7.291 -0.841,10.128 7.726,-5.975 16.979,-11.368 22.501,-7.191"
             style="fill:#ffffff;fill-opacity:1;fill-rule:evenodd;stroke:none"
             id="path188" />
        </g>
      </g>
    </g>
  </g>
</svg>
